<?xml version="1.0" standalone="no"?>
<!DOCTYPE svg PUBLIC "-//W3C//DTD SVG 20010904//EN"
 "http://www.w3.org/TR/2001/REC-SVG-20010904/DTD/svg10.dtd">
<svg version="1.0" xmlns="http://www.w3.org/2000/svg"
 width="359.000000pt" height="339.000000pt" viewBox="0 0 359.000000 339.000000"
 preserveAspectRatio="xMidYMid meet">

<g transform="translate(0.000000,339.000000) scale(0.100000,-0.100000)"
fill="#3a86ff" stroke="none">
<path d="M1690 3061 c0 -37 -2 -39 -37 -45 -21 -3 -52 -6 -70 -6 -29 0 -33 4
-39 36 -4 20 -11 33 -18 31 -6 -2 -53 -15 -104 -28 l-94 -24 6 -38 6 -38 -57
-25 c-53 -24 -59 -24 -68 -9 -31 52 -26 52 -128 -5 l-96 -54 20 -32 19 -32
-51 -42 -50 -43 -27 26 -27 27 -77 -77 -78 -77 26 -27 26 -27 -38 -50 -37 -51
-36 19 -36 18 -55 -96 c-34 -61 -50 -97 -42 -100 6 -2 21 -11 33 -21 l21 -17
-23 -55 c-12 -29 -24 -55 -25 -57 -1 -2 -18 1 -38 6 l-36 10 -14 -51 c-45
-161 -45 -161 -3 -174 34 -10 34 -10 22 -95 -6 -46 -7 -48 -39 -48 l-34 0 -7
-96 c-4 -52 -4 -98 -1 -101 3 -3 207 87 452 201 l448 207 38 -16 c109 -43 233
21 254 132 23 121 -102 236 -220 203 -69 -19 -136 -97 -136 -157 0 -11 -12
-23 -27 -30 -16 -6 -86 -38 -158 -71 -71 -34 -131 -57 -133 -52 -2 5 15 46 38
92 128 255 348 436 620 509 114 31 350 34 450 5 241 -67 442 -203 560 -376 59
-87 125 -230 151 -330 31 -117 32 -328 1 -442 -49 -181 -135 -333 -256 -454
-343 -343 -884 -373 -1263 -69 -73 59 -183 175 -183 194 0 4 88 49 196 100
l197 92 39 -15 c61 -25 136 -21 181 9 109 75 100 248 -16 304 -108 52 -230 -1
-258 -113 l-10 -41 -392 -183 c-216 -101 -402 -191 -415 -200 l-23 -18 51 -92
c29 -51 54 -92 56 -92 3 0 19 7 36 16 31 16 32 16 60 -17 49 -58 51 -64 24
-97 l-25 -29 78 -77 77 -77 24 26 c13 14 26 25 30 25 4 0 27 -16 53 -36 l46
-36 -16 -34 c-9 -18 -15 -35 -12 -37 7 -7 179 -107 183 -107 2 0 9 14 16 30
15 36 26 37 91 9 54 -24 53 -21 40 -65 l-9 -31 98 -27 c54 -14 103 -26 109
-26 6 0 13 16 17 36 6 35 8 36 43 30 20 -3 48 -6 63 -6 23 0 27 -5 33 -40 l7
-40 104 0 104 0 0 34 c0 19 3 37 8 39 4 3 34 7 66 8 58 4 59 3 69 -26 5 -16
11 -32 13 -34 2 -2 50 9 107 24 l104 27 -10 35 c-12 39 -10 42 62 70 47 18 50
16 80 -35 5 -10 30 0 97 39 49 29 91 54 94 56 2 2 -4 19 -14 36 l-18 31 44 38
c24 21 48 38 54 38 6 0 21 -11 34 -25 l24 -26 78 78 78 77 -27 28 -26 27 28
40 c42 61 49 65 85 46 18 -9 33 -15 34 -13 2 2 27 43 56 92 55 95 55 91 4 122
-17 10 -17 14 6 68 l23 58 38 -6 38 -6 15 52 c45 160 45 155 4 166 -35 9 -38
22 -23 110 6 30 9 32 45 32 l40 0 0 105 0 105 -40 0 c-36 0 -39 2 -44 33 -3
17 -8 49 -11 69 -6 36 -5 37 30 44 42 7 42 12 14 113 -12 42 -23 83 -24 91 -2
16 -13 17 -56 6 -24 -7 -27 -3 -47 49 -12 31 -22 60 -22 65 0 4 14 13 30 20
17 7 30 15 30 17 0 6 -53 101 -87 155 l-23 37 -33 -19 -33 -20 -25 32 c-53 70
-51 64 -22 98 l26 32 -75 75 -76 76 -33 -26 -33 -26 -40 31 c-23 18 -45 35
-49 39 -5 4 -1 22 8 40 21 39 22 37 -94 101 -79 44 -74 44 -106 -6 -9 -14 -16
-14 -68 6 l-58 21 6 41 7 41 -94 24 c-51 13 -98 26 -105 28 -7 3 -14 -10 -19
-31 -6 -32 -9 -36 -38 -36 -17 0 -48 3 -68 6 -36 6 -38 8 -38 45 l0 39 -105 0
-105 0 0 -39z"/>
<path d="M1712 2129 c-43 -22 -83 -76 -96 -130 -5 -23 -44 -44 -343 -184 -594
-278 -678 -317 -684 -324 -6 -6 23 -136 33 -146 2 -3 238 103 523 236 348 162
525 239 539 235 12 -2 39 -10 61 -17 98 -29 209 40 222 139 12 89 -24 158
-102 193 -53 24 -100 24 -153 -2z"/>
</g>
</svg>
